<mxfile host="app.diagrams.net" agent="Mozilla/5.0 (Windows NT 10.0; Win64; x64) AppleWebKit/537.36 (KHTML, like Gecko) Chrome/138.0.0.0 Safari/537.36 Edg/138.0.0.0" version="28.0.6">
  <diagram name="Página-1" id="YzMNmRbiWgRPerMUf0bW">
    <mxGraphModel dx="1418" dy="804" grid="1" gridSize="10" guides="1" tooltips="1" connect="1" arrows="1" fold="1" page="1" pageScale="1" pageWidth="827" pageHeight="1169" math="0" shadow="0">
      <root>
        <mxCell id="0" />
        <mxCell id="1" parent="0" />
        <mxCell id="mvOX1y1ygbB724AhFoII-6" value="" style="edgeStyle=orthogonalEdgeStyle;rounded=0;orthogonalLoop=1;jettySize=auto;html=1;" edge="1" parent="1" source="mvOX1y1ygbB724AhFoII-1" target="mvOX1y1ygbB724AhFoII-5">
          <mxGeometry relative="1" as="geometry" />
        </mxCell>
        <mxCell id="mvOX1y1ygbB724AhFoII-1" value="Inicio da auditoria" style="ellipse;whiteSpace=wrap;html=1;" vertex="1" parent="1">
          <mxGeometry x="260" y="140" width="120" height="80" as="geometry" />
        </mxCell>
        <mxCell id="mvOX1y1ygbB724AhFoII-3" style="edgeStyle=orthogonalEdgeStyle;rounded=0;orthogonalLoop=1;jettySize=auto;html=1;entryX=0;entryY=0.5;entryDx=0;entryDy=0;" edge="1" parent="1" source="mvOX1y1ygbB724AhFoII-2" target="mvOX1y1ygbB724AhFoII-1">
          <mxGeometry relative="1" as="geometry" />
        </mxCell>
        <mxCell id="mvOX1y1ygbB724AhFoII-2" value="Avaliador" style="shape=umlActor;verticalLabelPosition=bottom;verticalAlign=top;html=1;outlineConnect=0;" vertex="1" parent="1">
          <mxGeometry x="70" y="150" width="30" height="60" as="geometry" />
        </mxCell>
        <mxCell id="mvOX1y1ygbB724AhFoII-8" value="" style="edgeStyle=orthogonalEdgeStyle;rounded=0;orthogonalLoop=1;jettySize=auto;html=1;" edge="1" parent="1" source="mvOX1y1ygbB724AhFoII-5" target="mvOX1y1ygbB724AhFoII-7">
          <mxGeometry relative="1" as="geometry" />
        </mxCell>
        <mxCell id="mvOX1y1ygbB724AhFoII-5" value="Responder perguntas" style="ellipse;whiteSpace=wrap;html=1;" vertex="1" parent="1">
          <mxGeometry x="490" y="140" width="120" height="80" as="geometry" />
        </mxCell>
        <mxCell id="mvOX1y1ygbB724AhFoII-10" style="edgeStyle=orthogonalEdgeStyle;rounded=0;orthogonalLoop=1;jettySize=auto;html=1;exitX=1;exitY=0.5;exitDx=0;exitDy=0;entryX=0;entryY=0.5;entryDx=0;entryDy=0;" edge="1" parent="1" source="mvOX1y1ygbB724AhFoII-7" target="mvOX1y1ygbB724AhFoII-9">
          <mxGeometry relative="1" as="geometry" />
        </mxCell>
        <mxCell id="mvOX1y1ygbB724AhFoII-14" style="edgeStyle=orthogonalEdgeStyle;rounded=0;orthogonalLoop=1;jettySize=auto;html=1;exitX=0;exitY=0.5;exitDx=0;exitDy=0;entryX=0.5;entryY=0;entryDx=0;entryDy=0;" edge="1" parent="1" source="mvOX1y1ygbB724AhFoII-7" target="mvOX1y1ygbB724AhFoII-12">
          <mxGeometry relative="1" as="geometry" />
        </mxCell>
        <mxCell id="mvOX1y1ygbB724AhFoII-7" value="Criar Plano de ação" style="ellipse;whiteSpace=wrap;html=1;" vertex="1" parent="1">
          <mxGeometry x="490" y="320" width="120" height="80" as="geometry" />
        </mxCell>
        <mxCell id="mvOX1y1ygbB724AhFoII-9" value="" style="ellipse;html=1;shape=endState;fillColor=#000000;strokeColor=#ff0000;" vertex="1" parent="1">
          <mxGeometry x="680" y="345" width="30" height="30" as="geometry" />
        </mxCell>
        <mxCell id="mvOX1y1ygbB724AhFoII-13" style="edgeStyle=orthogonalEdgeStyle;rounded=0;orthogonalLoop=1;jettySize=auto;html=1;entryX=0;entryY=0.5;entryDx=0;entryDy=0;" edge="1" parent="1" source="mvOX1y1ygbB724AhFoII-11" target="mvOX1y1ygbB724AhFoII-12">
          <mxGeometry relative="1" as="geometry" />
        </mxCell>
        <mxCell id="mvOX1y1ygbB724AhFoII-11" value="Gerente" style="shape=umlActor;verticalLabelPosition=bottom;verticalAlign=top;html=1;outlineConnect=0;" vertex="1" parent="1">
          <mxGeometry x="70" y="490" width="30" height="60" as="geometry" />
        </mxCell>
        <mxCell id="mvOX1y1ygbB724AhFoII-15" style="edgeStyle=orthogonalEdgeStyle;rounded=0;orthogonalLoop=1;jettySize=auto;html=1;exitX=1;exitY=0.5;exitDx=0;exitDy=0;entryX=0.5;entryY=1;entryDx=0;entryDy=0;" edge="1" parent="1" source="mvOX1y1ygbB724AhFoII-12" target="mvOX1y1ygbB724AhFoII-9">
          <mxGeometry relative="1" as="geometry" />
        </mxCell>
        <mxCell id="mvOX1y1ygbB724AhFoII-12" value="Executar o Plano de Ação" style="ellipse;whiteSpace=wrap;html=1;" vertex="1" parent="1">
          <mxGeometry x="250" y="485" width="140" height="70" as="geometry" />
        </mxCell>
      </root>
    </mxGraphModel>
  </diagram>
</mxfile>
